<?xml version="1.0" encoding="UTF-8"?>
<!DOCTYPE svg  PUBLIC '-//W3C//DTD SVG 1.1//EN'  'http://www.w3.org/Graphics/SVG/1.1/DTD/svg11.dtd'>
<svg clip-rule="evenodd" fill-rule="evenodd" stroke-linejoin="round" stroke-miterlimit="2" version="1.1" viewBox="0 0 209 83" xml:space="preserve" xmlns="http://www.w3.org/2000/svg"><g fill="currentColor" fill-rule="nonzero"><path d="m20.701 82.776c-3.91 0-7.763-0.445-11.558-1.337-3.795-0.891-6.843-2.055-9.143-3.493l4.916-11.213c2.128 1.323 4.658 2.372 7.591 3.148 2.932 0.777 5.836 1.165 8.711 1.165 2.645 0 4.529-0.273 5.65-0.82 1.121-0.546 1.682-1.337 1.682-2.372s-0.676-1.768-2.027-2.199-3.493-0.848-6.426-1.251c-3.738-0.46-6.915-1.063-9.531-1.811s-4.873-2.128-6.771-4.14c-1.897-2.013-2.846-4.83-2.846-8.453 0-2.99 0.891-5.65 2.674-7.978 1.782-2.329 4.384-4.169 7.806-5.521 3.421-1.351 7.518-2.027 12.291-2.027 3.392 0 6.756 0.345 10.091 1.035s6.124 1.668 8.367 2.933l-4.917 11.127c-4.14-2.3-8.625-3.45-13.455-3.45-2.588 0-4.485 0.301-5.693 0.905-1.207 0.604-1.811 1.395-1.811 2.372 0 1.093 0.661 1.855 1.984 2.286 1.322 0.431 3.507 0.877 6.555 1.337 3.853 0.575 7.044 1.236 9.574 1.984 2.53 0.747 4.73 2.113 6.598 4.097 1.869 1.984 2.804 4.758 2.804 8.323 0 2.933-0.892 5.564-2.674 7.892-1.783 2.329-4.413 4.155-7.892 5.477-3.479 1.323-7.663 1.984-12.55 1.984z"/><path d="m69.089 82.776c-5.75 0-10.221-1.48-13.412-4.442-3.192-2.961-4.788-7.202-4.788-12.722v-65.612l16.389 34.474v30.275c0 1.725 0.445 3.048 1.337 3.968 0.891 0.92 2.142 1.38 3.752 1.38 1.322 0 2.558-0.287 3.708-0.862l0.69 12.334c-2.472 0.805-5.031 1.207-7.676 1.207z"/><path d="m82.631 35.251h16.388v46.749h-16.388v-46.749zm8.194-5.176c-2.99 0-5.405-0.833-7.245-2.501-1.841-1.667-2.761-3.738-2.761-6.21 0-2.473 0.92-4.543 2.761-6.21 1.84-1.668 4.255-2.502 7.245-2.502s5.405 0.791 7.245 2.372c1.84 1.582 2.76 3.609 2.76 6.081 0 2.588-0.92 4.73-2.76 6.426s-4.255 2.544-7.245 2.544z"/><path d="m133.52 82.776c-5.175 0-9.804-1.035-13.887-3.105-4.082-2.07-7.259-4.945-9.531-8.625-2.271-3.68-3.407-7.849-3.407-12.507s1.136-8.812 3.407-12.464c2.272-3.651 5.449-6.497 9.531-8.539 4.083-2.041 8.712-3.062 13.887-3.062 5.29 0 9.862 1.136 13.715 3.407 3.852 2.272 6.584 5.42 8.194 9.445l-12.68 6.469c-2.127-4.198-5.232-6.296-9.315-6.296-2.933 0-5.362 0.977-7.288 2.932-1.927 1.955-2.89 4.658-2.89 8.108 0 3.508 0.963 6.253 2.89 8.237 1.926 1.984 4.355 2.976 7.288 2.976 4.083 0 7.188-2.099 9.315-6.296l12.68 6.469c-1.61 4.025-4.342 7.173-8.194 9.444-3.853 2.272-8.425 3.407-13.715 3.407z"/><path d="m189.06 69.203c2.167-0.58 3.959-1.388 5.378-2.423 1.42-1.035 2.749-2.463 3.987-4.283l10.57 6.454c-2.967 6.034-8.699 10.19-17.198 12.467-5.276 1.413-10.182 1.656-14.717 0.728s-8.375-2.875-11.522-5.842c-3.146-2.967-5.322-6.7-6.528-11.199-1.19-4.443-1.175-8.719 0.046-12.826s3.466-7.671 6.735-10.69 7.264-5.161 11.985-6.426c4.388-1.175 8.643-1.348 12.765-0.518 4.122 0.831 7.731 2.691 10.827 5.582s5.284 6.725 6.564 11.502l-30.59 14.804c2.689 3.149 6.588 4.039 11.698 2.67zm-8.167-22.815c-2.721 0.73-4.716 2.172-5.984 4.327-1.268 2.156-1.589 4.846-0.963 8.072l17.37-8.494c-1.062-1.74-2.523-2.97-4.383-3.692s-3.873-0.793-6.04-0.213z"/></g></svg>
